HIERARCHY
ROOT Hips
{
   OFFSET 0.00000 0.00000 0.00000
   CHANNELS 6 Xposition Yposition Zposition Zrotation Xrotation Yrotation
   JOINT RightUpLeg
   {
      OFFSET -10.734961 -10.400485 0.121982
      CHANNELS 3 Zrotation Xrotation Yrotation
      JOINT RightLeg
      {
         OFFSET 0.000000 -53.307237 1.647240
         CHANNELS 3 Zrotation Xrotation Yrotation
         JOINT RightFoot
         {
            OFFSET 0.304259 -50.510883 -1.752708
            CHANNELS 3 Zrotation Xrotation Yrotation
            JOINT RightToes
            {
               OFFSET 0.048000 -5.298108 10.198920
               CHANNELS 3 Zrotation Xrotation Yrotation
               End Site
               {
                  OFFSET -0.096000 -0.164938 11.735748
               }
            }
         }
      }
   }
   JOINT Spine
   {
      OFFSET 0.000000 14.268601 0.000000
      CHANNELS 3 Zrotation Xrotation Yrotation
      JOINT Spine1
      {
         OFFSET 0.000000 30.788881 0.153196
         CHANNELS 3 Zrotation Xrotation Yrotation
         JOINT HEad
         {
            OFFSET 0.000000 10.480993 0.013609
            CHANNELS 3 Zrotation Xrotation Yrotation
            End Site
            {
               OFFSET -0.348000 15.329041 3.016740
            }
         }
         JOINT LeftShoulder1
         {
            OFFSET 10.788001 -0.434702 -0.264000
            CHANNELS 3 Zrotation Xrotation Yrotation
            JOINT LeftArm
            {
               OFFSET 12.339240 -0.004056 0.386548
               CHANNELS 3 Zrotation Xrotation Yrotation
               JOINT LeftForeArm
               {
                  OFFSET 39.320280 0.118973 -1.709208
                  CHANNELS 3 Zrotation Xrotation Yrotation
                  JOINT LeftHand
                  {
                     OFFSET 33.077163 0.102434 1.226592
                     CHANNELS 3 Zrotation Xrotation Yrotation
                     End Site
                     {
                        OFFSET 20.093162 -0.720000 1.803492
                     }
                  }
               }
            }
         }
         JOINT RightShoulder
         {
            OFFSET -10.788001 -0.434702 -0.264000
            CHANNELS 3 Zrotation Xrotation Yrotation
            JOINT RightArm
            {
               OFFSET -12.339240 -0.004056 0.386548
               CHANNELS 3 Zrotation Xrotation Yrotation
               JOINT RightForeArm
               {
                  OFFSET -39.476518 0.118973 -1.709208
                  CHANNELS 3 Zrotation Xrotation Yrotation
                  JOINT RightHand
                  {
                     OFFSET -32.990522 0.102434 1.226592
                     CHANNELS 3 Zrotation Xrotation Yrotation
                     End Site
                     {
                        OFFSET -19.957442 -0.720000 1.803492
                     }
                  }
               }
            }
         }
      }
   }
   JOINT LeftUpLeg
   {
      OFFSET 10.734961 -10.400485 0.121982
      CHANNELS 3 Zrotation Xrotation Yrotation
      JOINT LeftLeg
      {
         OFFSET 0.000000 -53.307237 1.647240
         CHANNELS 3 Zrotation Xrotation Yrotation
         JOINT LeftFoot
         {
            OFFSET -0.304259 -50.510883 -1.752708
            CHANNELS 3 Zrotation Xrotation Yrotation
            JOINT LeftToes
            {
               OFFSET -0.048000 -5.298108 10.198920
               CHANNELS 3 Zrotation Xrotation Yrotation
               End Site
               {
                  OFFSET 0.096000 -0.056938 11.735748
               }
            }
         }
      }
   }
}
MOTION
Frames: 9
Frame Time: 0.016667
-327.388301 102.088574 -17.039674 -23.977497 53.559236 -135.955257 2.650113 46.064790 63.551837 30.020215 19.070211 -2.406877 -54.587770 31.155536 5.193036 17.095286 -14.197164 -66.257172 32.587860 45.961145 133.183184 36.497987 -24.147388 -135.597218 -5.540929 55.405129 44.595654 -15.937352 112.013477 6.309289 285.782655 68.239607 -251.864045 -60.328179 137.205455 8.638769 -56.666439 -53.082448 -93.736710 -98.509578 245.978908 235.371789 41.181973 214.263827 344.952311 -1.885989 233.551243 85.829086 -7.703793 -30.901449 52.623240 58.917519 34.379341 69.930783 20.860632 25.052142 66.513974 -48.990628 100.822827 -10.118095 23.772309 -28.069822 -62.265698
-328.767009 102.920149 -16.395029 -24.008786 52.693902 -136.032739 2.237971 45.710710 63.562246 29.242284 18.711337 -2.630301 -54.709993 31.234605 4.881605 17.074856 -14.313289 -66.438452 31.432729 45.222908 133.941075 35.591901 -23.109020 -135.249862 -6.409035 53.787699 44.242841 -16.398243 112.022957 6.276830 285.690776 68.846121 -250.284742 -61.687441 137.093180 8.204532 -56.296325 -53.222521 -93.509333 -99.518855 245.916562 234.646286 40.610495 213.020049 345.374089 -0.525754 234.460040 87.089673 -6.888650 -29.795204 54.400862 58.224781 35.455205 71.527107 19.612415 25.801501 65.256461 -47.652130 101.148668 -10.324910 23.746814 -28.178292 -62.327081
-330.149226 103.639506 -15.763674 -23.869197 52.647528 -136.789865 1.924561 45.738010 64.168152 28.577100 18.694072 -3.025634 -54.693341 31.415076 4.751267 17.033104 -14.408223 -66.555037 30.349744 44.940200 134.045058 34.817347 -22.593783 -134.746382 -6.959046 53.555349 43.038484 -16.625104 111.503562 5.822872 285.504284 68.572818 -248.760079 -61.909743 136.383633 9.109558 -55.726445 -53.427932 -93.036063 -100.891122 244.560688 233.329097 40.579841 211.203096 344.682846 -0.934799 235.495797 86.081373 -6.740779 -30.364962 55.118045 58.468796 36.687439 72.169561 19.001521 27.378281 64.689760 -46.507110 101.670788 -10.144421 23.506108 -28.299513 -61.878440
-331.529918 104.183682 -15.084666 -24.013953 53.299566 -137.228035 2.214308 46.027501 64.916782 28.245639 18.547442 -3.633296 -54.670337 31.920329 4.769947 16.936089 -14.525207 -66.518017 30.668506 45.455052 134.567567 36.160128 -22.155894 -132.046749 -7.102314 54.645454 41.064221 -15.620554 113.267506 6.045050 284.223815 66.591203 -246.075924 -62.659630 137.416316 10.110365 -56.358585 -52.592498 -90.284425 -104.221255 243.895646 230.846652 39.701250 207.947322 342.443364 -1.873440 238.166948 85.397500 -6.221812 -30.576168 54.580564 59.634491 38.108658 72.142978 18.435681 28.507685 64.154901 -45.514837 102.302382 -10.112032 23.363226 -28.524366 -61.500683
-332.835269 104.540509 -14.422977 -24.906452 54.456548 -138.064925 2.177113 46.777999 66.057724 28.221309 19.108827 -4.333657 -54.689021 32.371412 4.729436 16.746570 -14.805815 -66.511665 32.461075 44.037839 135.442706 37.400279 -20.055626 -130.692910 -6.700432 55.434461 38.550995 -17.885825 117.767624 7.393435 -78.420933 64.773559 -242.278667 -64.497019 137.409035 9.745191 -56.104188 -52.856092 -86.870048 -106.509369 243.523264 226.560066 41.409364 204.032326 344.867753 0.755915 239.212759 88.174061 -4.278815 -28.876814 58.530391 60.726809 41.129838 71.862094 17.263559 29.988478 63.954859 -44.868168 101.935499 -10.312819 23.262018 -28.923727 -60.853420
-334.262805 104.847296 -13.815852 -24.179324 54.811974 -138.081372 3.564904 45.924949 66.323152 29.318252 18.312736 -5.237264 -54.615231 33.483513 4.994066 16.537814 -14.937415 -66.318562 31.712521 45.224311 137.872710 34.230289 -17.869617 -130.421069 -6.072525 56.464679 35.583793 -19.289994 118.957675 6.205410 -80.196489 60.752388 -238.569738 -64.250162 136.295482 10.908985 -55.080247 -54.059400 -83.750994 -111.018639 239.983122 221.846580 41.414992 199.241358 342.332797 1.374326 239.404441 86.839264 -4.150729 -29.919678 59.552385 61.250165 42.992298 72.153169 14.040983 29.343770 62.759193 -45.404871 100.251058 -12.642853 23.590568 -30.076608 -61.422238
-335.944552 105.106858 -13.362425 -23.902143 53.802691 -138.454792 3.734367 44.310326 66.790548 30.259705 18.005103 -6.470233 -54.781061 34.762572 4.911600 16.377236 -15.010589 -66.155921 31.878750 46.146923 140.619416 29.760705 -14.766446 -130.837943 -4.751014 56.969768 32.156688 -21.392760 118.741732 3.973894 -84.730996 57.698774 -235.120438 -67.004736 133.395411 9.044900 -54.202541 -54.702626 -84.640210 -117.258939 237.656050 214.420757 44.631762 192.206837 341.084976 -0.368062 237.887511 81.375366 -4.730098 -31.069038 53.181994 60.361230 44.206344 71.167450 11.347865 30.323076 62.657717 -45.329397 99.366733 -13.549956 23.667236 -30.648971 -61.255336
-337.787051 105.365752 -12.883796 -23.883954 53.272938 -138.503723 2.764438 43.899190 67.677175 30.413415 17.155540 -7.054608 -54.737003 34.859940 4.664850 16.119832 -15.077839 -65.443744 28.714416 47.324236 142.617492 26.776835 -12.075505 -131.512451 -3.085511 54.944391 28.707142 -20.334651 117.146719 1.163026 -86.940768 53.150101 -230.898069 -65.983172 131.822665 10.410862 -53.695539 -54.875700 -82.134213 -122.358946 234.660520 207.838818 46.595236 190.643052 336.885448 0.043962 241.325446 76.707239 -5.369256 -31.793530 48.091707 59.915239 45.049343 68.714633 9.632118 31.388353 62.941156 -45.612184 98.096440 -14.531528 23.633774 -31.564005 -60.999969
-339.399256 106.161164 -12.384877 -24.562149 53.104215 -138.712044 1.681072 43.981371 68.796766 29.938123 17.536197 -6.442269 -54.082538 34.602968 4.476369 15.922211 -14.832246 -64.123025 27.934485 47.629064 143.851789 23.674576 -10.832399 -131.683342 -0.096646 52.442903 24.650141 -19.570946 117.132075 -0.846070 -91.200757 47.747008 -226.066803 -63.994658 130.072961 10.043297 -54.105374 -52.326834 -83.633385 -125.130882 229.909222 201.741358 46.948651 186.210436 330.555857 1.192537 242.091574 74.102717 -11.063049 -29.218166 45.098035 57.554555 45.721829 67.742991 9.388407 31.000210 62.737282 -45.464755 95.010957 -16.088845 22.882368 -33.664411 -60.462399
